/* XPM */
static char *bitcoin64_xpm[] = {
/* width height num_colors chars_per_pixel */
"    64    64      256            2",
/* colors */
"`` c #442004",
"`. c #c49214",
"`# c #7c5a1d",
"`a c #9c5c23",
"`b c #9c761c",
"`c c #6c3d05",
"`d c #9c824c",
"`e c #dccaa4",
"`f c #bc791c",
"`g c #8c511b",
"`h c #9c927c",
"`i c #947a4c",
"`j c #744a0b",
"`k c #643e08",
"`l c #845c1a",
"`m c #9c6c1a",
"`n c #bc8716",
"`o c #b4831a",
"`p c #714e27",
"`q c #84664a",
"`r c #cc9211",
"`s c #8c661e",
"`t c #ac6c22",
"`u c #542904",
"`v c #ac791a",
"`w c #ece6d4",
"`x c #b4aeac",
"`y c #7c4c0c",
"`z c #bc882d",
"`A c #945c19",
"`B c #ac772c",
"`C c #cc923f",
"`D c #6c411c",
"`E c #bc7f1a",
"`F c #4c4250",
"`G c #9c6d31",
"`H c #543414",
"`I c #7c5318",
"`J c #bca274",
"`K c #f4f6f4",
"`L c #ac6524",
"`M c #cca254",
"`N c #b49244",
"`O c #8a6220",
"`P c #ac7e1b",
"`Q c #b48c51",
"`R c #cc8d14",
"`S c #543224",
"`T c #6c4208",
"`U c #e4dac4",
"`V c #b4a28c",
"`W c #9c721d",
"`X c #b3721c",
"`Y c #d0ae78",
"`Z c #cc8e44",
"`0 c #bc802f",
"`1 c #4c2e14",
"`2 c #6c5a44",
"`3 c #9c641c",
"`4 c #c48e14",
"`5 c #7c4c24",
"`6 c #bc8e31",
"`7 c #948a78",
"`8 c #6c521c",
".` c #845c26",
".. c #ac8234",
".# c #f4f0dc",
".a c #a08a68",
".b c #9c5624",
".c c #94662c",
".d c #b4771c",
".e c #dcaa5c",
".f c #7c6a44",
".g c #9c7634",
".h c #8c5618",
".i c #ac9880",
".j c #64471a",
".k c #a46c1b",
".l c #c48914",
".m c #7c4d1a",
".n c #bc8942",
".o c #5c5048",
".p c #643504",
".q c #d4aa5f",
".r c #7c4604",
".s c #ecdab8",
".t c #ac8226",
".u c #946e1e",
".v c #845312",
".w c #c49249",
".x c #744509",
".y c #d4c29c",
".z c #a46522",
".A c #9c8371",
".B c #84796f",
".C c #6c4c1b",
".D c #b46e20",
".E c #94621d",
".F c #c48218",
".G c #34293c",
".H c #bc9230",
".I c #5c411c",
".J c #8c5c18",
".K c #94671a",
".L c #b27e2d",
".M c #cca360",
".N c #746247",
".O c #7c5426",
".P c #8c806c",
".Q c #bc7a2d",
".R c #745624",
".S c #c48931",
".T c #cc9c48",
".U c #7c461c",
".V c #5c3406",
".W c #fcfefc",
".X c #dcdcdc",
".Y c #b07226",
".Z c #dcbe84",
".0 c #c4812e",
".1 c #3c3040",
".2 c #fcf0e4",
".3 c #844d19",
".4 c #bc9c61",
".5 c #744c19",
".6 c #a4771b",
".7 c #945224",
".8 c #9c9a94",
"#` c #9c6b24",
"#. c #e8d6b4",
"## c #c4ba9c",
"#a c #604a38",
"#b c #d4d1d1",
"#c c #cca66c",
"#d c #dcb070",
"#e c #8c7254",
"#f c #746a64",
"#g c #ece2dc",
"#h c #443644",
"#i c #745e44",
"#j c #ac8654",
"#k c #c4b4a4",
"#l c #643a1c",
"#m c #aca6a4",
"#n c #4c2604",
"#o c #dcc29c",
"#p c #846a64",
"#q c #cc962c",
"#r c #c48e4c",
"#s c #675e5f",
"#t c #c09660",
"#u c #bcbebc",
"#v c #ccb688",
"#w c #b49e6c",
"#x c #645644",
"#y c #746664",
"#z c #bcaa84",
"#A c #542e09",
"#B c #6c461f",
"#C c #543a2c",
"#D c #ac8a34",
"#E c #8c6e3c",
"#F c #e4e2e4",
"#G c #7c726c",
"#H c #9c9691",
"#I c #6c4e34",
"#J c #ac925c",
"#K c #442e2c",
"#L c #eceeec",
"#M c #a48e7c",
"#N c #a0722e",
"#O c #b4aa8c",
"#P c #c08e24",
"#Q c #643a05",
"#R c #ccc2b4",
"#S c #5c4a4c",
"#T c #bca68c",
"#U c #948d87",
"#V c #cc9d58",
"#W c #f4e8d6",
"#X c #bcb29c",
"#Y c #544644",
"#Z c #fcf8f3",
"#0 c #b48234",
"#1 c #a47931",
"#2 c #3c2a2c",
"#3 c #c4922b",
"#4 c #948068",
"#5 c #b49e84",
"#6 c #64565c",
"#7 c #b47e1d",
"#8 c #a4721c",
"a` c #c48e34",
"a. c #945622",
"a# c #f4e2cc",
"aa c #5c2e04",
"ab c #74461c",
"ac c #5c3a1c",
"ad c #a45e24",
"ae c #8c6a4c",
"af c #d4960c",
"ag c #844e0c",
"ah c #b4782c",
"ai c #a46e2c",
"aj c #b46624",
"ak c #d4a351",
"al c #5c3621",
"am c #745419",
"an c #8c5c25",
"ao c #b49a7c",
"ap c #c48a44",
"aq c #645244",
"ar c #b48528",
"as c #a48670",
"at c #64401d",
"au c #d4a664",
"av c #845424",
"aw c #e4dcd4",
"ax c #7c6e5c",
"ay c #b4aa9c",
"az c #745038",
"aA c #4c3224",
"aB c #f4f2ee",
"aC c #4c2204",
"aD c #6c3e14",
"aE c #a47e4c",
"aF c #8c5124",
"aG c #bc8924",
"aH c #ac6e2c",
"aI c #ac7924",
"aJ c #ece7e4",
"aK c #945d24",
"aL c #74421c",
"aM c #bc7f24",
"aN c #b48e5c",
"aO c #6c4414",
"aP c #9c6424",
"aQ c #844e24",
"aR c #ac8644",
"aS c #b47824",
"aT c #a46b24",
"aU c #c48a24",
"aV c #84531c",
"aW c #744614",
"aX c #946824",
"aY c #5c3614",
"aZ c #a47824",
"a0 c #a49e94",
"a1 c #4c3a44",
"a2 c #4c2a14",
"a3 c #b4965c",
"a4 c #fcfafc",
"a5 c #a47a3c",
"a6 c #c49534",
"a7 c #948274",
"a8 c #a49284",
/* pixels */
".W.W.W.W.W.W.W.W.W.W.W.W.W.W.W.W.W.W.W.W.W.W.W#Z.2.y#5`h.Aas.a`QaNa3#w`J#z#v`e#WaB.W.W.W.W.W.W.W.W.W.W.W.W.W.W.W.W.W.W.W.W.W.W.W",
".W.W.W.W.W.W.W.W.W.W.W.W.W.W.W.W.W.W.W.W.W`U.aax`q.`.J.J.J.J.E`m`3`m.k`m`m`maZ#D.4`Y.s.2.W.W.W.W.W.W.W.W.W.W.W.W.W.W.W.W.W.W.W.W",
".W.W.W.W.W.W.W.W.W.W.W.W.W.W.W.W.W.W.W`V#S#B.m.x`y.v.K.E.k`taMaMaS`fah.SaU`0aS#7aZ.u.u`N.Z#W.W.W.W.W.W.W.W.W.W.W.W.W.W.W.W.W.W.W",
".W.W.W.W.W.W.W.W.W.W.W.W.W.W.W.W.W`ha1ataW.5.x.v.J.kaT`3ah.k.Y.SaS#0aS`t.S`v`zaI#P.S`z.6.u#1`Y.2.W.W.W.W.W.W.W.W.W.W.W.W.W.W.W.W",
".W.W.W.W.W.W.W.W.W.W.W.W.W.W.W#Ta1at.x`T`y.h`j.E`A`Aahai`0.d.Y#7ah`zaS`v.S`za`aU#7a`aGaGa`ar.K.u`Y.2.W.W.W.W.W.W.W.W.W.W.W.W.W.W",
".W.W.W.W.W.W.W.W.W.W.W.W.W.##6#CaL#Q`T.x.v.J.J`3`m`3`t`vaMaS`v`XaS`EaS.d.d#7aUar`E#q#P`.`v#P#qar`l#1#..W.W.W.W.W.W.W.W.W.W.W.W.W",
".W.W.W.W.W.W.W.W.W.W.W.W##.1aD#Q`T`T.v.x`y.J`3.k`t.Y.d.d`X`X`t`t.k`t`v#7`EaG.l`n`oarar#3aG.taG`o`6aZ.J#c.W.W.W.W.W.W.W.W.W.W.W.W",
".W.W.W.W.W.W.W.W.W.W.W`7#KaL#Q`c`y.x`I.E.v`A`t.d`f`t`A`I.5.5`p`I.``I.``l`l`l`m`v`n`n`n`n`vaGa6`n`o`P#3`la5.2.W.W.W.W.W.W.W.W.W.W",
".W.W.W.W.W.W.W.W.W.W#f`SaD.p`c`c`j`l.v`3.k`X`t`A.5.CaV.EaT.Y.d`E`E`E`E`o#7`v#8.u`s`m`P`naG`P`PaG#P.6#7ar.KaX#W.W.W.W.W.W.W.W.W.W",
".W.W.W.W.W.W.W.W.W#salaO`T.V`I`j.x.v`3.D.z.mat.m.E`XaS`f`f`E.F`E`I`v.l.F.l.laG`4`n`o.6`W`v`4`o`o`P`zar`oaG`b.h.s.W.W.W.W.W.W.W.W",
".W.W.W.W.W.W.W.W#yal`T#Q`y.x.x`l.v.k.D.vat.m.z`X`X`X`f`f`f`f.F.J.j.d.l`n.l`4`4`r`4.l`4`n.6`b`oaG.6.6.H`o`ParaZaV#W.W.W.W.W.W.W.W",
".W.W.W.W.W.W.W.P`SaW.V.x`c`I`y`A.D`LaOab.z`X.d.daS`X`f.d`f`E.dat#8`n`E`4.l`4`.`4`4`.`r`4`n`n.6`P`n.6#8`oaG`W#3`b.J.2.W.W.W.W.W.W",
".W.W.W.W.W.W#k#2aW.p.x`T`T`y`A`X`A#l.h`X`X`X.D`X`f`X`f`f`f.F`lam.l.l#7`n.l`4`4`R`4`.`4`.`.`n`o`o.6`o`P.6ar`P.6ar.K`Ga4.W.W.W.W.W",
".W.W.W.W.W`w.G.m`c`k.5.v.x`A.D.mat`A.D`t`X`X.d`X`f`f.d`f`E.d.I.d.l.l`n`E`4.l.l.l`4`4`4`4`4`..l`o`o`v#7`v`m`PaG.6aG`O`Q.W.W.W.W.W",
".W.W.W.W.W`FaQ`caO`I`c.J`A`X.m`D.z`X`t`X`X`X`f`f`X`f`f`f.l`j`l`R.l.l`R`n`n`.`4`.`4`r`.`R`.`R`.`4`o`o`P`o`v`W.t`n.6ar.v#o.W.W.W.W",
".W.W.W.W.i#C`I.p.x`y.v`A.D.vataT.D.D.D`t.D`X`X`f`f`f`f.F`3.I#7.l.l.l`4`4`n.l`4`4`.`R`.`r`.`4`.`R`.`P`o.d`o.6`v`n.6`v.L`O#Z.W.W.W",
".W.W.W#Z.Gan.p`y.x.x.J`t.hat.z.D.D.Y.D`X`XaS`XaS`X`f`f`E.j.K.l`n`n`E`4`4`n`n`.`r`4`r`.`r`.`R`.`4`4`4`v`o`v`v.6`varaI.6.J.4.W.W.W",
".W.W.W.B`paV#Q`j.J.h.z.zac`A`t`t.D`X`X.d.d`f`X`f`f.d.F.J.5.l.l.l.l.6`o`R`.`n`4`4`4`.`4`4`R`.`4`4`4`4.l#8`v.d`X.K`PaG.d#7aV#W.W.W",
".W.W.2.Gan.5ag`j.h`m`t`Tav.D`t`t`t.D`X.D`X`X`f.d`f`E.d.j#8.l`n.l.l`o`m`.`4.l`n`r`r`r`.`r`4`4`4`4.l.l`n#7.k.d`v`m`m`0`v.L`m`Q.W.W",
".W.W.P.O.mag.m.J`3`taVab`t.D`t.D`X`X`X.d`XaS`X`f`f.F`I`I.l.l.l.l`4`R.6`P`4`4`n`4`.`4`4`.`4`r`4`4.l.l.l.l`v`m.d.Y.K`v.d.k`0`I#W.W",
".W.W.1`G`T.v.v.h.k`LataP.D`t.D.D.Y`X.d.d`f`f`f`f`E#8.I`v.l`n.l.l.l`4`o.K`4`R`4`o`r`.`r`r`r`r`r`r.l.l`n.F.F`3.Y`v`3#8#0.k`z`3.4.W",
".W#R#aaK.3.E.h`3.D.m.5aj`t.D`t.D`X`X`f.d`f`f`f`E.FaO`l.l.l`E.l`n.l`n`r`P.6`r`r`4`4`r`.`.`4`4`4.l.l`n.l`E`n`X`O`X.k`3.YaMaT`BaX#Z",
".W#s`GaV`I.J`taT.zat`a`t`t`t.D.Y`X.d`X`f`f`f`f.F.E.j`E.l`n.l.l.l`4`4`4`4`W`n`.`4`o`4`4`r`4`4`4.l.l`n.F`n`E`E`A.k`t.E`3#0.d.Q.E#.",
".W#h#1.3.ka.ai`XaVab`t`t`X`t`t.D`X`X.d`f.d`f`E`E`k#``n.l`E.l.l`4`4`4`.`r`n.6`r`r`n`n`r`4`4.l.l`n`n.l`E`f`E`f.k.J`X`3`m`t.d.k#`.4",
"aw#aai`g`3.kah`tabaK`t.D.D`t`X`X`X.d`X`f.d`f`E.J.5`n.F`n.l.l.l`4`4`4`r`raf.6`n`r`.`n`4`4.l.l`n`n`n`E`E`E`f`f`faVaT.z`3#7ah`tah.g",
"`hae`3.E`3`3ah.zaO.z`t`t.D`X`X`X`X`f`f`X`f`f.d.I`v.l`n.l.l.l`4`4`4`4`4`.`r`4`b`.`r`n`o`.`n.l`n`n.F`E.F`f`E`f.d`A`A`t`AaH`0aTahaX",
"#saR`A`t.YaH`Xa..m.D`t.D.D`t`X`X.d`X`f`f`E.l`I`I.l.l.l.l.l`4`4`4`4`4`4`r`.`..6`P`.`4`n`n.l`n.l`n.F`E`E`f`f.d`f.z`I`t`a`3aS.Q`t`A",
"`F.w`3`3aP`0`X.3an.D`X`X`X.d`X`f`f`f`f`f`E.k.I.d.l.l.l`4`4`4`4`4`r`.`r`.`r`r`4`m.l`4.l#7.l.l`n.F`E`E`f.d`f.d`X.D.m`L`a`3.L`0.0`3",
"a1.naH.D`t`0.D.5`a`X`X`X`X`X`X.d`f.d`f`E`EaO`O.l`4.l`4`R`4`4`4`4`4`4`r`.`.`4`r`P.6`4`4.l`n.l.l.F.F`n`f`f.d`X`X.D.maKad.E.D`X.Yai",
"#Y.n.YaH`t`0`LabaP.D`t.D`X`X`f.d`f.d`f`E.EaO`E.l.l.l.l`4`.`4`r`.`r`.`r`.`R`.`4`4`W`o`4.l`o.l.F`n`f`E`f`f.d`X`t`t.3.h.z`3ahah.D.Y",
"#xap.k.QaT.QaTabaT.D.D.Y`X`X.D.d`X`f`E`f`k`W.l.l`n.l`4.l.l`4.l`4`4`4`4`4`4`4.l`.#7`W`R.l`E`o.l`f`E`f.d.d`X.D`t`t.vaFad`a.Yah`Xah",
".Napah.Q`f.Q.z.5`t`t`X`X`X`XaS.d`f`f.F`lam.l.l`n.l.l`4`.`.`.`.`r`r`.`R`.`4`4`.`4`4`m`v.l`n.d`E`E.d`f.d`X`X.D`t`L`g.mad`AaT`faTaH",
".f#r`t`tah`0.z.m`t.D`X`XaS`f`f`f`f.F`vac`v.l.l.l`4`4`4`4`.`R`.`4`.`4`4`4`r`r`.`R`4`n.K.l.l`E.d`E`f`f`X.d.D.D.D.D`g.mad.7aT.0ah.Y",
".f`Cah.Dah.Q.z.m`t`t`X.D`X`X.d`f`E.F`j`#.l.l.l.l`4`r`.`r`.`4`4`R`4`4`4`4`4`4`4`4.l`R.6`v.l.F.d`X`f.d`X`X`t`t`L`L`gabad`A`t`t`L.Y",
".N#r`tahah.0.z.m`X`XaS.d.d`X`f.d`E`m.j#7.l.l`n.l.l`4`4`4`4`4`4`.`4`R`4`4`4`4`4`4.l.l`n.K`f`f.d`X.d`X`X.D`t`L`L`L.3.Uad`a`f.Q`t.Y",
"aq#V`L`faiaM`t.m`t`X`X`X`f.d.d`f`Eat`O.l.F.l.l.l`4`.`.`r`r`r`r`r`4`.`4`4`4.l`4.l.l`n.l.k`m`E`f`X`X`f.D.D`t`L`L`t.U.mad`A.Y.QaTaH",
".o.T`t`0.Q`0.D.mai`f`f`f`f`f.d.F.E.C`E`n.l`n.l`4.l`4`4`4`4`4`.`.`r`r`4`4`4.l.l.l`n`n`E.F.K`X`f.d.k`t`t`t`L`L`L`L`caF.b`AaH.Y.zaP",
".o.q.zaS`t`0aSaV`3.d.d.d`f`f`E`E.I#8.l.l.l`4`4`4`R`4`4`R`.`r`4`4`4`4`4`4`4`4.l`n.l`E`E`f`X.J.d`X`t.z`t`L.z`L.zad#l.7`a`aah.Q`t`g",
"#f.q.Q`f`t`z`faKaK.d`f`f`f`f.l`Iam.l.l.l.l.l`4`4`.`R`.`.`r`4`R`.`r`4`r`r`4`4.l.l.F.F`E`f`E.E.k.d.D.z`L`t`L.zad.b.p`aa..z.zaTaH.v",
"#m.4ah`0aiah`0`3.J`X.d`X`f`E`X.I`v.l`n.l.l`4`4`4`4`4`r`.`r`r`.`r`.`4`4`4`4.l.l`n.l.F`n`f`f`X.J`X`X`t.z`L`Lad`LagaDada..k.Y`a`3`y",
"aJ`iaR`f`0`t`0.YaVaS`f`f`f.l`j`l.l.l.l.l.lam`l`4`4`r`r`.`r`r`.`r`r`r#7am#7.l.l.l.F`n.F`E`f`f`3aP.D`t.z.z`Lad`LaD.U`aa..zai`3`3aW",
".W#x#V`t`0aMaM.d`A#``X.d`E`3.j#7.l.F.l`4#8`8`P`4`r`P`n`r`P`o`4`b.6.l`v.C`n.l#8`m.d`E.k`X`3.z`XaV`L`t`Lad`L`L.b`H.7a.`A`3`A.h.v.`",
".W#G.qai`f.Y.L`0.z`AaS`f`E.j.K.l.l`n.l`R`#.u#7`n`ram.u`r.j`Pam`#`s.6`P`l.l`l`k`l.J`E`y`j.5`I.k.z.h.D`L`a`a`L`c#lad.7`A`3aP.v`cao",
".W#b#J.naS`B.d.S`van.Y`E.J.C.F.l.l.l`4.l`8`o.u.6af`b.6`Pam`r.u.6.K`v`v`##7.j#7.l`3`v.vaP.d.h.z`t.3`a`L.z.bad.VaF`a.h`3`g`y.J.p`U",
".W.W`2#d.k#7`B#0aM.k.K`fam#8.l.l`n`n.l`Wam#7`O`P`4`4.u.u`b`4`j.u`W.6`P`l.d`#.F.F.5.Y`l`m`X`DaP.D.zaV`L`Lad.3aDad.7.h#`.h`y.x`p.W",
".W.W#H#c.Y#7`0`vaG`X.K.d.d`E`n`E`n.l`4am.u`r`.`P`n`r`W`W`.`o`#`o`#`m`vam`E.K`m.v.C`f`IaP`XataP.D`L`ga.adad.bad.b.3.h.E.x`y#A#T.W",
".W.WaB#i`M#8`z#7`zar`t`m.l`n.l`n.l`4.l`b.l`r`r`o`4`r`n`n`r`4`o`P`P`n`n`X`n.F.Y`m`X`f`3`t.D`A.z`L.zad.Uadadadad`gag.J.x.x`T.VaB.W",
".W.W.W#H#c`B.d#7.6a6#7.k`v.l.l.l.l`4`4`r`4`.`4`r`.`.`r`.`.`4`.`4`R.l`n.l.F`n.F`E`f.d`f.D`t`t.zadadad`g`gadad.7`y`y.v.v`c#naoa4.W",
".W.W.W#Z#i.q#7#7`var`z#7#8`o`n.l.l`n`4`n.l`4`4`4`r`.`r`.`r`4`4.l`n`n.l.F`n`f`E`f.d.D.D`t`t`L.z`Lad`L.UaLad.b`y.vaV`caO`T.VaB.W.W",
".W.W.W.W`x#t..arar.6aG`o.d.6#7`v.l`4`4`4`4`4`.`.`4`.`.`4`4`4.l.l.l.l`n.F`E.F`f`f`X`X.D`t`L`L`L`Laj`g#AaFad.3.r.v`y.x`TaC#k.W.W.W",
".W.W.W.W.W.N#d`m#PaG`P.H`o#7`v`o.6.l`.`4`4`4`R`.`R`.`R`4`r`4`4.l.l`n.F`E`f`f`f`f.d`X`X`t`t`L`Laj.3a2aF`L.3.x.m`c#Q`T#A`pa4.W.W.W",
".W.W.W.W.W.X`q`M.6`o`o.6#3`P#7#7`o.6`n`r`4`4`4`4.l`4`4.l`4.l.l.l`n.l.F`E`E`f`f.d`X.D.D`t`L.D`L.xa2`gad.U`y.r.x`I.p#Q``#g.W.W.W.W",
".W.W.W.W.W.W#u#j`6`var`v`Par`P`v`o`o.6`P`raf`.`.`.`4.l`4.l.l`n`n`n.F`E`E`f`f.d`X`X.D`t`L.D.baYaYa.ad.U.x.3`y#Q#Q`T``#k.W.W.W.W.W",
".W.W.W.W.W.W.W#U#c.t.6aG.t.6#P`P`v`n`n`o.6`n`r`r`.`4`4`n.l.l.l.l.F`n`f`E`f.d`X.D.D`t`t.z.x`1aOad.b.U`j.r`I`T`T#Q``as.W.W.W.W.W.W",
".W.W.W.W.W.W.W.W.Bau`P.6#P`P`v#D`z.6`n`4`o`b`W`P.l`r`r`4`4.l.l.l.F.F`n`f.d`X`X`X.D`3`yaY#l.7adaFaL`y`y.x#Q.p`k#n`q.W.W.W.W.W.W.W",
".W.W.W.W.W.W.W.Wa4axau.L.6aG`v`varar`W`P`n`4`o`W`s`W#7`n.l.l.l.l`E.F`f`f`f`f`t`A`T`HaD.7`Lad.U.x.v.v#Q`I`c.V#naz#Z.W.W.W.W.W.W.W",
".W.W.W.W.W.W.W.W.Wa4.B.M`6`P`P.t.d`PaG`P`W`P`n`4`n.6.K`O`O`O`O.K.E.K`A.v`jaOataOav.z`L`a.3aW.vag.v`y`T`c`T```q#Z.W.W.W.W.W.W.W.W",
".W.W.W.W.W.W.W.W.W.W.W#U#t.w#8ara``v`B#7`z`P`W#8`P.l`4.l#7`v.k.K.E`A.J.E.E.z`t`t`La..m.m`A`A`y.v#Q`c`T.VaC.A#Z.W.W.W.W.W.W.W.W.W",
".W.W.W.W.W.W.W.W.W.W.W.Wa0a5#V#8`var#7#8.L`0#7#0`W`m`m#8`v.d`E`E`f.d.d`X.k`3.haV.maV`3`3.E.v`T`I`c#Q.V`u#5.W.W.W.W.W.W.W.W.W.W.W",
".W.W.W.W.W.W.W.W.W.W.W.W.W#b#e.M.n`v`B#7a``B#7`BaU`z.L#8#8.K.K.J`O.E.JanaKaXaT`t.Y.EaP`y.h`y`y`c`kaa#Iaw.W.W.W.W.W.W.W.W.W.W.W.W",
".W.W.W.W.W.W.W.W.W.W.W.W.W.Wa4#U#j.e#0.k.d#0.S`XaS#7`fah`0.S.SahaM`0.0.SaS`XaT.Yai.h.E.v.x.x`c.Vaa#M#Z.W.W.W.W.W.W.W.W.W.W.W.W.W",
".W.W.W.W.W.W.W.W.W.W.W.W.W.W.W.W.X.P`Naka``v#7aS.L`C#7`0.YaS`0.Yah.kah.Q`tai#``A`m.J.v`y`c#Q.p#4aJ.W.W.W.W.W.W.W.W.W.W.W.W.W.W.W",
".W.W.W.W.W.W.W.W.W.W.W.W.W.W.W.W.W.W#b`7`d.eak`0`vaSaS#0.d.d.SaS.SaS`t.LahaT`3.hagag`y.x`c.AaJ.W.W.W.W.W.W.W.W.W.W.W.W.W.W.W.W.W",
".W.W.W.W.W.W.W.W.W.W.W.W.W.W.W.W.W.W.W.W#Fa0#4`N.T.T`Ca`aSaSaS.Y`0`t.Y.k.k.k.k`A`A`Iae#O#L.W.W.W.W.W.W.W.W.W.W.W.W.W.W.W.W.W.W.W"
};
