/* XPM */
static const char *bitcoin64_xpm[] = {
/* columns rows colors chars-per-pixel */
"64 64 623 2",
"s  c #946668",
"&X c #FAC17E",
"+  c #976A6C",
"#o c #FAC484",
"j+ c #A37A79",
"Eo c #FAC78A",
"7o c #ED8E23",
"zO c #CF7520",
"J. c #F69727",
" @ c #F5F1F1",
"Wo c #FACA8F",
"O  c #A68182",
"d@ c #F69A2D",
"&+ c #9C4C1F",
"-O c #A98586",
"f@ c #C97328",
"Zo c #FACD96",
">  c #FBF9FA",
"z@ c #B76426",
"K. c #964720",
"8X c #FACD97",
"UX c #FEFDFC",
"^+ c #8A3D1F",
"^  c #F99E34",
"S  c #F99E35",
"H@ c #904524",
"F@ c #A85928",
"n@ c #F6A038",
"kO c #FAD09D",
"g  c #6F281F",
"{+ c #FAD09E",
"k  c #661F1E",
"K  c #601A1D",
"a@ c #843B25",
";@ c #692320",
"2X c #601D1F",
"k@ c #F09B3A",
"*+ c #BB9A96",
"|  c #DE8C38",
"V@ c #632124",
"No c #662527",
"+X c #E4943F",
"Y. c #F9A443",
"K+ c #EA9942",
"!X c #F9A746",
"gO c #E49443",
">o c #F9A747",
"<@ c #6C2D30",
"!o c #F9AA4D",
"{  c #6F3134",
"b. c #723537",
"SO c #87483D",
"<o c #F9AD53",
"[+ c #F9AD54",
"}. c #F9B05A",
"u  c #844A45",
",o c #F9B35E",
"Qo c #F9B360",
"Z. c #E5CFC1",
"N+ c #F9B666",
"po c #F9B667",
"$  c #875456",
"U+ c #F9B96D",
"'O c #966560",
"@  c #8D5C5E",
"zX c #F9BC73",
"bX c #FDECD8",
"CO c #FDEFDE",
"OO c #F9BF79",
"Ko c #E5DBDB",
"w  c #9C6D69",
"~+ c #F9C27F",
"e+ c #F9C280",
"yO c #FDF5EA",
"f+ c #FDF5EB",
"%O c #FDF5EC",
"v+ c #F59523",
"Ho c #E98B22",
"v. c #F1EBEC",
"%o c #FDF8F1",
"t+ c #D17721",
"WO c #CB7220",
"2. c #BD9383",
"_+ c #C87122",
"7O c #F8992B",
"<X c #FDFBF6",
"mo c #FDFBF7",
"BX c #FDFBF8",
"o. c #F89C2F",
"E+ c #F89C30",
"!O c #AB8788",
"(  c #F89C31",
"_  c #B66527",
"V. c #984921",
"G  c #C26F2A",
"zo c #F89F35",
"Z  c #F89F36",
"V  c #F89F37",
"Z@ c #924726",
"$@ c #65201E",
"7+ c #5F1B1D",
"L  c #621C1D",
"h  c #712A20",
"u. c #863D26",
".. c #F8A23B",
"y. c #621F21",
"+o c #F8A23C",
"=. c #E08E39",
"n. c #AA5E2F",
" . c #F8A23D",
"H+ c #652326",
"NO c #F8A541",
"P@ c #B79A9B",
"qX c #F8A542",
"IX c #F8A543",
";O c #D1833D",
"FO c #E09141",
"wo c #F8A847",
"Po c #F8A849",
"$+ c #F8A84A",
"P+ c #FCDBB3",
"'  c #7D3D37",
"EX c #DBBEAD",
"xO c #86463A",
"4  c #743738",
"0X c #F8AB50",
"i  c #D2B8B0",
"6  c #CCB3B0",
"_X c #F8AE56",
"ZO c #FCE1C2",
"n+ c #D2BEBD",
"iO c #FCE4C6",
"p+ c #F8B462",
"|X c #9B6253",
"L+ c #FCE7CE",
"]X c #FCEAD3",
"g. c #DED1D1",
"(. c #AA7664",
"/X c #FCEDDB",
"KX c #FCF0DF",
"6O c #FCF0E0",
"2O c #FCF0E1",
"@O c #FCF3E5",
"P  c #AA7C72",
"r. c #B68977",
"DO c #A1797A",
"f. c #BC917F",
"5+ c #FBC78B",
":X c #F79726",
"B+ c #CD7421",
"9  c #A47D7E",
"`O c #C16A20",
"*  c #A47D7F",
"Go c #F79A2B",
"3@ c #C46E24",
"ho c #FBCD94",
" + c #F79D32",
"x  c #FCFCFC",
"3O c #F79D33",
"x. c #8E4120",
"<. c #823720",
"MX c #70281D",
"lo c #FBD09C",
"A@ c #A05328",
"C@ c #7F3622",
"D+ c #F7A038",
"RX c #5E191C",
"8o c #641E1D",
"Bo c #67221F",
"L@ c #611D1F",
"v@ c #BB6B2F",
"j@ c #BE6F30",
"4+ c #732C22",
"w@ c #974D2A",
"(O c #FBD3A2",
"#+ c #F7A33E",
"lX c #FBD3A3",
"(+ c #642124",
"5o c #FBD3A4",
"G. c #F7A340",
".o c #CA7C3A",
"'o c #FBD6A9",
"'. c #F4A243",
"c+ c #FBD6AA",
"4X c #FAA745",
"3+ c #6A292C",
"ZX c #FAA747",
":o c #F7A647",
"dX c #FBD9AF",
"HO c #FBD9B0",
"I. c #BFA4A5",
",X c #88483A",
"`o c #FBDCB5",
"dO c #8B4C3F",
"y+ c #793D3D",
"2o c #FBDFBC",
"_O c #FBDFBD",
"m+ c #7C4447",
"GX c #FBE2C3",
"<+ c #FBE5C9",
"]o c #FAB666",
"#  c #885456",
"Uo c #FABC72",
"-o c #E0D3D4",
")O c #FABF79",
"oX c #9D7375",
"o+ c #A67C78",
"^O c #FAC587",
"qO c #A07779",
".  c #F2EEEE",
"|+ c #ED8F25",
"_o c #FAC88C",
"Y+ c #FAC88D",
"9@ c #F69829",
"z. c #F09328",
">X c #D57B24",
"TX c #BD6721",
"*X c #FEFBF7",
"d+ c #FEFBF8",
"EO c #FACB93",
"l@ c #ED922D",
",. c #D87F29",
"uX c #A55320",
".O c #93441E",
"w. c #BA6625",
"m@ c #F69B31",
"r  c #FEFEFC",
"^X c #FEFEFD",
":  c #FEFEFE",
"G@ c #9F5126",
"x@ c #782F1F",
"`  c #7E3420",
".X c #722A1E",
"D@ c #AB5B29",
"S@ c #A85A29",
"e. c #66201D",
"y@ c #6F2920",
"*@ c #601B1D",
"n  c #813824",
";o c #6F2921",
"6. c #6C2520",
"E  c #ED9838",
"2  c #601B1E",
"aX c #7E3725",
"D. c #A85D2F",
"i. c #EA973D",
"=  c #B89A9A",
"c  c #B89A9B",
"M. c #F9A542",
")+ c #DB8C3E",
"[O c #C6793A",
"CX c #D2833C",
"fo c #D5873E",
"tO c #F9A849",
"NX c #844235",
"Q. c #F9AB50",
"%X c #F9AE54",
"R+ c #F9AE55",
"r+ c #F9AE56",
"AX c #F9B15A",
"-@ c #7B4245",
"1o c #F9B15C",
"1O c #F9B462",
"LX c #F9B463",
"]  c #E5D3C8",
"[. c #F9B767",
"`X c #F9B768",
"go c #F9BA6E",
"UO c #F9BA6F",
"[  c #DCCDCE",
"hX c #F9BD73",
"ro c #F9BD75",
"(X c #FDEDDA",
")X c #FDF0DF",
"gX c #FDF0E0",
"HX c #F9C07C",
"=+ c #E8E0E0",
"pX c #996D6F",
"/+ c #EBE4E4",
"cX c #FDF3E7",
"cO c #9C7172",
"g+ c #FDF6EC",
"). c #EEE8E9",
"io c #FDF6ED",
"7  c #F7F4F1",
"7X c #FDF9F3",
"-X c #FDF9F4",
"=@ c #F7F4F4",
"0. c #F89A2B",
"lO c #F89A2C",
"RO c #FDFCF8",
"*o c #B66021",
"fX c #FDFCF9",
"TO c #FDFCFA",
"/  c #F89D32",
"PX c #F89D33",
"b+ c #71281D",
"A  c #F8A036",
"d. c #7A311F",
"!  c #F8A037",
"q+ c #F8A038",
"j  c #6E271F",
"B  c #F29B37",
"b@ c #E08C35",
"1@ c #68221F",
"{. c #F8A039",
"0o c #B19092",
"}  c #984D29",
"C. c #682220",
"*. c #8C4327",
"'+ c #7D3525",
"w+ c #F8A33D",
"j. c #9E522C",
".@ c #A75B2F",
"-+ c #954C2C",
"6o c #F8A33F",
"I@ c #B79899",
":@ c #DA8A3B",
"9. c #F8A340",
"3X c #B96D35",
"u+ c #B7989A",
"oO c #BF7238",
"9X c #F8A644",
"wO c #DD8E40",
"xX c #F8A645",
"YO c #F8A646",
"L. c #7D3B31",
"]. c #F8A94A",
"FX c #FCD9B0",
"z+ c #F8AC50",
"a+ c #FCDCB5",
"DX c #FCDCB6",
"XX c #E1C7B6",
"SX c #FCDFBC",
"I+ c #FCDFBD",
"(o c #CCB7B7",
"QO c #8C5248",
">+ c #FCE2C2",
";+ c #F8B25D",
"jO c #FCE2C3",
"[o c #F8B25E",
"t. c #CFBBBC",
"uo c #FCE2C4",
"eX c #FCE5C9",
"{O c #FCE5CA",
"X  c #D5C3C4",
"uO c #FCE8CF",
"Ro c #FCE8D0",
"|O c #FCEBD5",
"%  c #8C5B5D",
"To c #FCEEDB",
"Co c #FCEEDC",
"8  c #E4DADA",
"rO c #FCF1E1",
"Fo c #FCF1E2",
"a  c #EAE2E3",
"BO c #FCF4E9",
"VX c #EDE6E6",
"{X c #F49424",
"G+ c #F3EEEE",
"AO c #D07620",
"N. c #F79828",
"B. c #F49728",
"l. c #F7982A",
"r@ c #E88D29",
"X+ c #B25D1F",
"&@ c #C77024",
"%+ c #FBCB92",
"`+ c #A78284",
"h+ c #A3521F",
"yX c #F79B2E",
"ao c #91431E",
"+. c #D67E2A",
"F+ c #8B3E1F",
"F  c #DC862E",
"!. c #F79E34",
"jo c #FBCE99",
"C  c #F79E36",
"J  c #7C3320",
"K@ c #641F1D",
"J@ c #7C3321",
"N  c #DF8A33",
"1. c #611B1D",
"WX c #B08E90",
"h@ c #7F3724",
"E. c #FBD19F",
"T  c #853C25",
"`. c #7F3725",
"}O c #F7A13C",
"9o c #CBA999",
"T. c #F7A43E",
"2@ c #D38339",
"+@ c #C77937",
"#O c #F7A440",
"Yo c #FBD4A5",
"i+ c #B86B35",
"6@ c #672629",
"@+ c #FBD7AB",
"LO c #FBD7AD",
"<O c #FBDAB2",
"VO c #FBDAB3",
"3o c #FBE0BE",
"l  c #884F48",
"%. c #CEB9BA",
"$o c #FBE3C4",
"-  c #D1BDBD",
"0O c #945C50",
"do c #885557",
"eO c #FABA6F",
"S. c #8E5D5F",
"eo c #FABD75",
"T+ c #FAC07B",
"k+ c #E6DCDC",
"x+ c #FAC07C",
"aO c #FAC07D",
"5  c #9D7170",
"W. c #FAC381",
"5X c #FAC382",
"8+ c #F2ECE8",
";  c #EFE8E7",
"U  c #EFE8E9",
"6+ c #F39222",
"I  c #F8F4EE",
"mX c #F09124",
"^. c #F39526",
"~X c #FAC98D",
"<  c #A37C7D",
"a. c #F99A2B",
"i@ c #F6992C",
"s. c #E18628",
">. c #F99A2C",
"jX c #FEFCF8",
":. c #F99A2D",
"vX c #FACC94",
"'X c #FEFCF9",
"o@ c #93451F",
"S+ c #FACF99",
"1+ c #81361E",
"/. c #873B1F",
"D  c #F09732",
"^o c #752C1D",
"H  c #A25325",
"B@ c #8A3F22",
"g@ c #7B3120",
"p@ c #69221D",
"4@ c #631D1C",
",@ c #631D1D",
"~  c #F9A038",
"M  c #C6742F",
"7@ c #631D1E",
"R  c #BD6E30",
"s@ c #D28135",
"u@ c #C67734",
";. c #F9A33D",
"8@ c #BD6E33",
"-. c #F9A33E",
"7. c #C67735",
"qo c #A55A30",
"v  c #662426",
"k. c #F6A241",
"h. c #662427",
"IO c #F9A643",
"@X c #F9A644",
"M+ c #E19241",
"bO c #F9A645",
"_. c #69282B",
"/O c #F9A646",
"vO c #E49643",
"o  c #BB9FA0",
"V+ c #6C2C2E",
"Vo c #F6A547",
"0  c #6C2C2F",
":O c #F9A94A",
"GO c #F9AC51",
".+ c #F9AC52",
"Ao c #F9AF56",
"So c #F9AF57",
"@o c #F9AF58",
"Io c #F9AF59",
" O c #F9B25E",
"vo c #F9B25F",
"e  c #DCC8C2",
"xo c #F9B563",
"X@ c #F9B564",
"so c #9C6658",
"YX c #F9B86B",
"Jo c #EEDDCF",
"=X c #F9B86C",
"t  c #DCCECE",
"5@ c #DCCECF",
"Oo c #F9BB71",
"0+ c #F9BE77",
"1X c #E5DADA",
",O c #FDF1E1",
"=o c #F7ECE1",
"s+ c #FDF1E3",
"KO c #FDF4E7",
"JO c #FDF4E9",
":+ c #FDF7EE",
"$O c #FDF7EF",
"Q+ c #A27A7C",
" X c #EC8E25",
"W+ c #DA7F23",
"sO c #C87020",
"~. c #F89828",
"JX c #FDFAF4",
"9O c #BC6620",
"6X c #FDFAF5",
">@ c #CB7424",
"XO c #B79085",
"*O c #AA571F",
"#@ c #B36022",
"O. c #F89B2E",
"C+ c #FAF9F9",
"pO c #FDFDFA",
"0@ c #AD5B23",
"p  c #FDFDFB",
"3. c #FDFDFC",
"X. c #F89B31",
"A. c #FDFDFD",
"|. c #F89E33",
"N@ c #B66428",
"t@ c #893D20",
"|o c #F89E34",
"R. c #F89E35",
"@. c #8F4222",
"Q  c #F8A138",
"d  c #5F1A1C",
"c@ c #8F4526",
"J+ c #651F1E",
"m  c #A7592A",
"3  c #5F1A1D",
"W  c #F8A13A",
"#. c #682321",
"l+ c #833B27",
"Lo c #894028",
"U. c #984E2B",
"5. c #621E21",
"!+ c #9E532E",
"e@ c #EF9B3E",
")o c #A75C31",
"8. c #F8A440",
"%@ c #D7873B",
"O+ c #B06534",
"p. c #F8A441",
"&. c #652226",
"Z+ c #B7999B",
"m. c #F8A442",
"]+ c #F5A344",
"]O c #BA9D9E",
"Xo c #F8A746",
"&O c #F8A747",
"4O c #F8AA4C",
"4o c #F8AD53",
"{o c #FCE0BE",
"}o c #F8B05A",
"Do c #FCE3C4",
";X c #FCE3C5",
",  c #D2C0C0",
"z  c #E1CEC5",
"+O c #FCE6CB",
"MO c #FCE6CC",
"q@ c #D8C8C8",
"kX c #FCE9D2",
"5O c #FCECD7",
"tX c #FCECD8",
"oo c #FCEFDD",
"=O c #A47369",
"&  c #95686A",
"fO c #9B7072",
"P. c #F9F1E8",
"~o c #F79623",
"&o c #F79624",
"H. c #F79928",
"8O c #F79929",
"hO c #FBC98F",
"bo c #C16920",
"q. c #F7992B",
"}+ c #FBCC94",
")  c #E88E2D",
"Mo c #FCFBFB",
"M@ c #DC842D",
"ko c #FBCF9A",
"   c #FFFFFF",
"@@ c #F79F36",
",+ c #FBCF9B",
"}X c #732B1E",
"f  c #67211E",
"b  c #611C1D",
"OX c #67211F",
"c. c #CEAB99",
"nX c #FBD2A1",
"QX c #853D27",
"rX c #FBD2A2",
"A+ c #A0552E",
"no c #732E26",
"q  c #672424",
"iX c #D1AF9D",
"mO c #FBD5A7",
"$. c #CEAEA0",
"F. c #FAA644",
"9+ c #E59642",
"~O c #D6883F",
"sX c #F7A545",
">O c #FBD8AD",
"/o c #D1B2A6",
"yo c #FBD8AE",
"co c #FBD8AF",
"wX c #FBDBB3",
"to c #FBDBB4",
" o c #763B3D",
"$X c #FBDEBA",
"4. c #C8B2B3",
"1  c #793F42",
"O@ c #CBB6B7",
"[X c #FBE1C1",
"2+ c #D4BFBC",
"nO c #FAB869",
"Y  c #885658",
"PO c #FABB70",
"y  c #8E5E60",
"++ c #FABE77",
"#X c #FABE78",
/* pixels */
"                                                  . X o O + @ # $ % & * = - ; :                                                 ",
"                                          > , < 1 2 3 3 3 3 3 3 3 3 3 3 3 3 3 4 5 6 7                                           ",
"                                      8 9 0 3 3 3 3 3 3 3 3 3 3 3 3 3 3 3 3 3 3 3 3 q w e r                                     ",
"                                  t y 2 3 3 3 3 3 3 3 3 3 3 3 3 3 3 3 3 3 3 3 3 3 3 3 3 3 u i p                                 ",
"                              a s 3 3 3 3 3 3 3 3 3 3 3 3 d f g h j k 3 3 3 3 3 3 3 3 3 3 3 3 l z                               ",
"                          x c v 3 3 3 3 3 3 3 3 b n m M N B V C Z A S D F G H J K 3 3 3 3 3 3 3 L P I                           ",
"                        U Y 3 3 3 3 3 3 3 d T R E W W Q ! ~ V C Z A S ^ / / / ( ) _ ` 3 3 3 3 3 3 3 ' ]                         ",
"                      [ { 3 3 3 3 3 3 b } |  . ...W W Q ! ~ V C Z A S ^ / / / ( X.o.O.+.@.K 3 3 3 3 3 #.$.:                     ",
"                    %.&.3 3 3 3 3 3 *.=.-.;. . ...W W Q ! ~ V C Z A S ^ / / / ( X.o.O.:.>.,.<.3 3 3 3 3 1.2.3.                  ",
"                  4.5.3 3 3 3 3 6.7.8.9.-.;. . ...W W Q ! ~ V C Z A S ^ / / / ( X.o.O.:.>.0.q.w.e.3 3 3 3 3 r.3.                ",
"                t.y.3 3 3 3 3 u.i.p.8.9.-.;. . ...W W Q ! ~ V C Z A S ^ / / / ( X.o.O.:.>.0.>.a.s.d.3 3 3 3 3 f.                ",
"              g.h.3 3 3 3 3 j.k.p.p.8.9.-.;. . ...W W Q ! ~ V C Z A S ^ / / / ( X.o.O.:.>.0.>.a.l.z.x.3 3 3 3 b c.              ",
"            v.b.3 3 3 3 3 n.m.M.p.p.8.9.-.;. . ...W W Q ! ~ V C Z A S ^ / / / ( X.o.O.:.>.0.>.a.l.N.B.V.3 3 3 3 C.Z.            ",
"          A.S.3 3 3 3 3 D.F.M.M.p.p.8.G.-.;. . ...W W Q ! ~ V C Z A S ^ / / / ( X.o.O.:.>.0.>.a.l.N.H.J.K.3 3 3 3 L.P.          ",
"          I.3 3 3 3 3 U.Y.F.M.M.p.p.8.T.-.;. . ...W W Q ! ~ V R.E.W.Q.!./ / / ( X.o.O.:.>.0.>.a.l.N.H.~.^./.3 3 3 3 (.:         ",
"        )._.3 3 3 3 `.'.F.F.M.M.p.p.8.T.-.;. . ...W W Q ! ~ V ].r   : [./ {.}.|.X.o.O.:.>.0.>.a.l.N.H.~.~. X.X3 3 3 L XX        ",
"        oX3 3 3 3 OX+X@XF.F.#X$X%Xp.8.T.-.;. . ...W W Q ! ~ V &X    *XW / =X  -X;X!.O.:.>.0.>.a.l.N.H.~.~.:X>X1.3 3 3 ,X<X      ",
"      1X2X3 3 3 3 3X4X@XF.F.5X6X7X8X9XT.-.;. . .0XqXW Q ! ~ V wX    eX^ / rX    tXyXO.:.>.0.>.a.l.N.H.~.~.:X:XuX3 3 3 3 iX      ",
"      pX3 3 3 3 aXsX4X@XF.F.M.%XdXfXgXhX-.;. . .;XjXkXlXzXxXZ cX    vX^ / bX    nXo.O.:.>.0.>.a.l.N.H.~.~.:X:XmXMX3 3 3 NXBX    ",
"    VXy.3 3 3 3 CXZX4X@XF.AXSXDXFXGXp   HX;. .9.JX        p KX      LXPXIXUX    YXo.O.:.>.0.>.a.l.N.H.~.~.:X:X:XTX3 3 3 RXEX    ",
"    WX3 3 3 3 QX!XZX4X@XF.~X  ^X/X(X)XgX_X;. .`X                    'X]X[X    fX{.o.O.:.>.0.>.a.l.N.H.~.~.:X:X:X{X}X3 3 3 |X    ",
"  A. o3 3 3 3 .o!XZX4X@XF.Xo8X7XooOo8.T.-.;. .+o@o#o$o                        %o#o+oO.:.>.0.>.a.l.N.H.~.~.:X:X:X&o*o3 3 3 f =o  ",
"  -o3 3 3 3 ;o:o!XZX4X@X>o,o<o1o2o: 3o4o-.;. . ...W W GX                          6X5o6o>.0.>.a.l.N.H.~.~.:X:X:X&o7o8o3 3 3 9o  ",
"  0o3 3 3 3 qowo!XZX4X@Xeo      'Xp   ro-.;. . ...W W to          youo%o              iopo0.>.a.l.N.H.~.~.:X:X:X&o&oao3 3 3 so  ",
"  do3 3 3 3 fowo!XZX4X@XgohojokoloE.E.Xo-.;. . ...W {.cX        JXW S zoxocofX          BXvo>.a.l.N.H.~.~.:X:X:X&o&obo3 3 3 nomo",
"MoNo3 3 3 BoVowo!XZX4X@XCoZo<oAop.p.8.T.-.;. . ...W So:         DoA S ^ / / <oFo          CoGoa.l.N.H.~.~.:X:X:X&o&oHod 3 3 d Jo",
"Ko3 3 3 3 LoPowo!XZX4XIo: UoYoToqXRogoT.-.;. . ...W Eo          WoA S ^ / / / Qo            !oa.l.N.H.~.~.:X:X:X&o&o~o^o3 3 3 /o",
"(o3 3 3 3 )oPowo!XZX4X_o  `oFo'o]o  [oT.-.;. . ...W {o          }oA S ^ / / / |o:            Oa.l.N.H.~.~.:X:X:X&o&o~o.O3 3 3 XO",
"c 3 3 3 3 oOPowo!XZX4XOO+Omo  fX@OcX#OT.-.;. . ...+o$O        %OZ A S ^ / / / 1o          : &Oa.l.N.H.~.~.:X:X:X&o&o~o*O3 3 3 =O",
"-O3 3 3 3 ;OPowo!XZXwo1oF.:O#X>O,O<O8.T.-.;. . ...1O          2O#XPo3O^ / ( 4O5O          6O7Oa.8ON.H.~.~.:X:X:X&o&o~o9O3 3 3 0O",
"qO3 3 3 3 wOPowo!XZXeO  rO>O#XtOp.IX8.T.-.;. . ...Zo              ^XyOuOiObXpO            aO>.a.8ON.H.~.~.:X:X:X&o&o~osO3 3 3 dO",
"fO3 3 3 3 gOPowo!XZX<ohOjO7X  mo;X8.8.T.-.;. . .W eX                                  UXkOlO>.a.8ON.H.~.~.:X:X:X&o&o~ozO3 3 3 xO",
"cO3 3 3 3 vOPowo!XZX4XbOnOmO6X  MOp.8.T.-.;. . .NOmo        BOVOCO^X                ZO@o>.0.>.a.8ON.H.~.~.:X:X:X&o&o~oAO3 3 3 SO",
"DO3 3 3 3 FOPowo!XGOHOJO  KOLOPOIOp.8.T.-.;. . .UO          >OC Z YOHX3oTO          ROEOO.0.>.a.8ON.H.~.~.:X:X:X&o&o~oWO3 3 3 QO",
"!O3 3 3 3 ~OPowo!X^O    MOUo/OM.p.p.8.T.-.;. . .(O          )OC Z A S ^ 4O_O            nX0.>.a.8ON.H.~.~.:X:X:X&o&o~o`O3 3 3 'O",
"]O3 3 3 3 [OPowo!X}.Zo{Omo  -X<Op.p.8.T.-.;. .}O|O        UXXoC Z A S ^ /  +>O          r .+>.a.l.N.H.~.~.:X:X:X&o&o~oX+3 3 3 o+",
"t.3 3 3 3 O+Powo!XZX4X@X:O++@+nXp.p.8.T.#+;. .$+pO        tXZ C Z A S ^ / / qX:           %+>.a.l.N.H.~.~.:X:X:X&o&o~o&+3 3 3 *+",
"=+3 3 3 3 -+Powo!XZX4X@XF.F.M.M.p.p.8.;+:+>+,+<+          lXV C Z A S ^ / / Z ^X          rX>.a.l.N.H.~.~.:X:X:X&o&o~o1+3 3 3 2+",
"A.3+3 3 3 4+Powo!XZX4X@XF.F.M.M.p.p.8.wX                  UOV C Z A S ^ / / eo            5+>.a.l.N.H.~.~.:X:X:X&o&o6+8o3 3 7+8+",
"  @ 3 3 3 3 9+wo!XZX4X@XF.F.M.M.p.p.4oBX                  tXYo0+0Xq+PX/ w+e+%o            r+>.a.l.N.H.~.~.:X:X:X&o&ot+3 3 3 y+  ",
"  u+3 3 3 3 i+wo!XZX4X@XF.F.M.M.p.p.p+a+s+^X                      d+f+g+pO              tXlO>.a.l.N.H.~.~.:X:X:X&o&oh+3 3 3 j+  ",
"  k+3 3 3 3 l+wo!XZX4X@XF.F.M.M.p.p.8.T. .z+x+c+To                                    : YX0.>.a.l.N.H.~.~.:X:X:X&ov+b+3 3 3 n+  ",
"    m+3 3 3 7+M+!XZX4X@XF.F.M.M.p.p.8.T.-.;. . .N+      KX^X                          8X>.0.>.a.l.N.H.~.~.:X:X:X&oB+3 3 3 V+C+  ",
"    Z+3 3 3 3 A+!XZX4X@XF.F.M.M.p.p.8.T.-.;. . .S+    cXD+Poyo                    KXro:.>.0.>.a.l.N.H.~.~.:X:X:X&oF+3 3 3 9     ",
"    G+H+3 3 3 J+K+ZX4X@XF.F.M.M.p.p.8.T.-.;. . .L+    P+! ~ I+    GXGOU+W.Y+_oT+R+E+O.:.>.0.>.a.l.N.H.~.~.:X:X:XW+K 3 3 2 8     ",
"      Q+3 3 3 3 !+ZX4X@XF.F.M.M.p.p.8.T.-.;. .9XRO    ~+! W $O    Y+S ^ / / / ( X.o.O.:.>.0.>.a.l.N.H.~.~.:X:X:X^+3 3 3 y       ",
"      /+(+3 3 3 1.)+4X@XF.F.M.M.p.p.8.T.-.;. .UO    ^X4O! Qo      @oS ^ / / / ( X.o.O.:.>.0.>.a.l.N.H.~.~.:X:X_+3 3 3 3 t       ",
"        `+3 3 3 3 '+]+@XF.F.M.M.p.p.8.T.-.;. .+o[+5X{+Q ! }+    yOZ S ^ / / / ( X.o.O.:.>.0.>.a.l.N.H.~.~.:X|+MX3 3 3 s         ",
"         @{ 3 3 3 3 .@@XF.F.M.M.p.p.8.T.-.;. . ...W W Q ! X@5okX<OA S ^ / / / ( X.o.O.:.>.0.>.a.l.N.H.~.~.:Xo@3 3 3 v a         ",
"          O@3 3 3 3 7++@F.F.M.M.p.p.8.G.-.;. . ...W W Q ! ~ V C @@A S ^ / / / ( X.o.O.:.>.0.>.a.l.N.H.~.~.#@3 3 3 3 c           ",
"            fO3 3 3 3 $@%@F.M.M.p.p.8.9.-.;. . ...W W Q ! ~ V C Z A S ^ / / / ( X.o.O.:.>.0.>.a.l.N.H.~.&@*@3 3 3 Y x           ",
"            =@-@3 3 3 3 ;@:@M.M.p.p.8.9.-.;. . ...W W Q ! ~ V C Z A S ^ / / / ( X.o.O.:.>.0.>.a.l.N.H.>@,@3 3 3 { U             ",
"              =+<@3 3 3 3 1@2@M.p.p.8.9.-.;. . ...W W Q ! ~ V C Z A S ^ / / / ( X.o.O.:.>.0.>.a.l.N.3@4@3 3 3 &.[               ",
"                5@6@3 3 3 3 7@8@p.p.8.9.-.;. . ...W W Q ! ~ V C Z A S ^ / / / ( X.o.O.:.>.0.>.a.9@0@K 3 3 3 5.%.                ",
"                  q@6@3 3 3 3 3 w@e@8.9.-.;. . ...W W Q ! ~ V C Z A S ^ / / / ( X.o.O.:.>.0.>.r@t@3 3 3 3 y.4.                  ",
"                    5@<@3 3 3 3 3 y@u@#+-.;. . ...W W Q ! ~ V C Z A S ^ / / / ( X.o.O.:.>.i@w.p@3 3 3 3 h.t.                    ",
"                      =+-@3 3 3 3 3 3 a@s@ . . ...W W Q ! ~ V C Z A S ^ / / / ( X.o.O.d@f@g@3 3 3 3 3 b.g.                      ",
"                        =@fO3 3 3 3 3 3 3 h@j@k@..W W Q ! ~ V C Z A S ^ / / / ( X.l@z@x@3 3 3 3 3 3 S.v.                        ",
"                            O@{ 3 3 3 3 3 3 3 J+c@v@b@n@! ~ V C Z A S ^ / m@M@N@B@L 3 3 3 3 3 3 _.I.A.                          ",
"                               @`+V@3 3 3 3 3 3 3 3 3 f C@Z@A@S@D@F@G@H@J@K@3 3 3 3 3 3 3 3 L@oX).                              ",
"                                  /+Q+H+3 3 3 3 3 3 3 3 3 3 3 3 3 3 3 3 3 3 3 3 3 3 3 3 y.pX1X                                  ",
"                                      G+P@m+3 3 3 3 3 3 3 3 3 3 3 3 3 3 3 3 3 3 3 3  oWXVX                                      ",
"                                            k+I@@ 3+3 3 3 3 3 3 3 3 3 3 3 3 Nodo0o-oA.                                          ",
"                                                  A.=+t.]O!ODOcOfOqO-Oc (oKoMo                                                  "
};
