/* XPM */
static char *bitcoin16_xpm[] = {
/* width height num_colors chars_per_pixel */
"    16    16      256            2",
/* colors */
"`` c #ffffff",
"`. c #f1f1f1",
"`# c #b4a897",
"`a c #725838",
"`b c #835924",
"`c c #a16e28",
"`d c #af7527",
"`e c #b37b27",
"`f c #b7842d",
"`g c #b78d40",
"`h c #bba073",
"`i c #dacebd",
"`j c #fcfbf9",
"`k c #eae9e9",
"`l c #8d7e67",
"`m c #734911",
"`n c #965f16",
"`o c #a2661a",
"`p c #a76a19",
"`q c #a76c1b",
"`r c #aa7317",
"`s c #b47c11",
"`t c #b27c0b",
"`u c #ac7404",
"`v c #ab7919",
"`w c #c4b29b",
"`x c #fbfaf8",
"`y c #918066",
"`z c #79490d",
"`A c #945d17",
"`B c #a16621",
"`C c #ad6e20",
"`D c #b6761c",
"`E c #a57018",
"`F c #b68116",
"`G c #c48e12",
"`H c #c28d13",
"`I c #ba8716",
"`J c #ad780d",
"`K c #a26e08",
"`L c #c1af9a",
"`M c #fdfcfc",
"`N c #b2a899",
"`O c #764b19",
"`P c #955c17",
"`Q c #9d6222",
"`R c #b37120",
"`S c #bd7a1c",
"`T c #b0741a",
"`U c #a77518",
"`V c #c08915",
"`W c #ca930f",
"`X c #c99110",
"`Y c #bb871a",
"`Z c #a7720b",
"`0 c #a26e13",
"`1 c #d6ccc5",
"`2 c #79603d",
"`3 c #99611c",
"`4 c #9c6220",
"`5 c #af6e21",
"`6 c #bb771c",
"`7 c #a26e1a",
"`8 c #be8615",
".` c #bc8716",
".. c #bf8a13",
".# c #c79111",
".a c #ca9210",
".b c #c38a14",
".c c #af771b",
".d c #9e6005",
".e c #ae9070",
".f c #7d5428",
".g c #a76a22",
".h c #a26520",
".i c #b8751f",
".j c #b7771c",
".k c #ac711a",
".l c #ab7818",
".m c #c88f13",
".n c #c18c13",
".o c #be8914",
".p c #c48c13",
".q c #c48615",
".r c #b2751c",
".s c #9f6010",
".t c #ad7d40",
".u c #9a6628",
".v c #a96a22",
".w c #ab6b1e",
".x c #b9771d",
".y c #b3761a",
".z c #a47018",
".A c #c28a15",
".B c #c79012",
".C c #c99211",
".D c #be8a14",
".E c #bc8715",
".F c #c18615",
".G c #c28117",
".H c #b2721d",
".I c #9c5e18",
".J c #ab742e",
".K c #aa712c",
".L c #a66720",
".M c #af6e1f",
".N c #b8761d",
".O c #a97019",
".P c #b17d16",
".Q c #c99112",
".R c #c68f12",
".S c #c38d12",
".T c #b98416",
".U c #bd8318",
".V c #be7d1b",
".W c #ae6d1f",
".X c #97591d",
".Y c #a66c29",
".Z c #ac732e",
".0 c #ab6c20",
".1 c #b3731c",
".2 c #b1751b",
".3 c #a47218",
".4 c #c78e12",
".5 c #c79011",
".6 c #c89111",
".7 c #c89011",
".8 c #bb8416",
"#` c #b4781b",
"#. c #b5741e",
"## c #a86620",
"#a c #95551c",
"#b c #a56a29",
"#c c #a3702f",
"#d c #b67523",
"#e c #ac6f1b",
"#f c #a97218",
"#g c #b57e14",
"#h c #c38b13",
"#i c #c69011",
"#j c #c89110",
"#k c #c18c11",
"#l c #c28a13",
"#m c #bf8217",
"#n c #ad711d",
"#o c #ae6c21",
"#p c #9e5d23",
"#q c #905218",
"#r c #a0692b",
"#s c #8c6738",
"#t c #c18127",
"#u c #a16b1a",
"#v c #ac7716",
"#w c #b58015",
"#x c #a67819",
"#y c #b08116",
"#z c #a37616",
"#A c #9e7119",
"#B c #9e6f19",
"#C c #9d6a1a",
"#D c #9c641f",
"#E c #a76522",
"#F c #9b5924",
"#G c #88480b",
"#H c #8f653a",
"#I c #857155",
"#J c #c68d2d",
"#K c #b37b1a",
"#L c #ba8214",
"#M c #bc8913",
"#N c #b98614",
"#O c #bc8914",
"#P c #b18016",
"#Q c #ae7b19",
"#R c #ad751a",
"#S c #a56c1d",
"#T c #a86721",
"#U c #a05d24",
"#V c #9a5921",
"#W c #743a00",
"#X c #89796f",
"#Y c #c2bdb9",
"#Z c #9e7537",
"#0 c #c89222",
"#1 c #b48116",
"#2 c #c99311",
"#3 c #c58716",
"#4 c #c17f1a",
"#5 c #b7731f",
"#6 c #a26023",
"#7 c #925624",
"#8 c #763c04",
"a` c #63380b",
"a. c #bbb7c2",
"a# c #f5f5f5",
"aa c #9f9894",
"ab c #a97e2e",
"ac c #c48f23",
"ad c #b88519",
"ae c #b68513",
"af c #b98612",
"ag c #bc8413",
"ah c #b77b17",
"ai c #ab6d1c",
"aj c #9c6023",
"ak c #8e531d",
"al c #733d04",
"am c #603101",
"an c #9a8e9c",
"ao c #faf9fb",
"ap c #9a9291",
"aq c #977035",
"ar c #c48d2a",
"as c #c48a24",
"at c #b6801f",
"au c #ad761e",
"av c #a66d20",
"aw c #a26723",
"ax c #905513",
"ay c #713a00",
"az c #643c14",
"aA c #998f9b",
"aB c #f6f5f8",
"aC c #fbfbfb",
"aD c #c8c0b9",
"aE c #756355",
"aF c #866235",
"aG c #a5742b",
"aH c #ad7729",
"aI c #a77026",
"aJ c #946020",
"aK c #7b5631",
"aL c #8a7877",
"aM c #b6afb9",
"aN c #fafafa",
"aO c #000000",
"aP c #000000",
"aQ c #000000",
"aR c #000000",
"aS c #000000",
"aT c #000000",
"aU c #000000",
"aV c #000000",
"aW c #000000",
"aX c #000000",
"aY c #000000",
"aZ c #000000",
"a0 c #000000",
"a1 c #000000",
"a2 c #000000",
"a3 c #000000",
"a4 c #000000",
"a5 c #000000",
"a6 c #000000",
"a7 c #000000",
"a8 c #000000",
/* pixels */
"`````.`#`a`b`c`d`e`f`g`h`i`j````",
"```k`l`m`n`o`p`q`r`s`t`u`v`w`x``",
"`.`y`z`A`B`C`D`E`F`G`H`I`J`K`L`M",
"`N`O`P`Q`R`S`T`U`V`G`W`X`Y`Z`0`1",
"`2`3`4`5`6`D`7`8.`...#.a.b.c.d.e",
".f.g.h.i.j.k.l.m.n.o`G.p.q.r.s.t",
".u.v.w.x.y.z.A.B.C.D.E.F.G.H.I.J",
".K.L.M.N.O.P.Q.R.#.S.T.U.V.W.X.Y",
".Z.0.1.2.3.4.5.6.6.7.8#`#.###a#b",
"#c#d#e#f#g#h#i#j#k#l#m#n#o#p#q#r",
"#s#t#u#v#w#x#y#z#A#B#C#D#E#F#G#H",
"#I#J#K#L#M#N#O#P#Q#R#S#T#U#V#W#X",
"#Y#Z#0#1..#2.a.4#3#4#5#6#7#8a`a.",
"a#aaabacadaeafagahaiajakalamanao",
"```.apaqarasatauavawaxayazaAaB``",
"````aCaDaEaFaGaHaIaJaKaLaMaN````"
};
