/* XPM */
static char *bitcoin32_xpm[] = {
/* width height num_colors chars_per_pixel */
"    32    32      256            2",
/* colors */
"`` c #542604",
"`. c #c4963c",
"`# c #8c5e1c",
"`a c #a46214",
"`b c #ac7a14",
"`c c #a47e4c",
"`d c #7c4604",
"`e c #bc7a1c",
"`f c #a46e0c",
"`g c #cccecc",
"`h c #8c7a64",
"`i c #7c5e3c",
"`j c #bc8a14",
"`k c #74420c",
"`l c #94560c",
"`m c #b46e1c",
"`n c #b48614",
"`o c #84520c",
"`p c #bcb2a4",
"`q c #9c6e04",
"`r c #a47a44",
"`s c #a46e24",
"`t c #bc8214",
"`u c #eceaec",
"`v c #544644",
"`w c #8c5204",
"`x c #9c5e1c",
"`y c #ac821c",
"`z c #bc8a34",
"`A c #4c3634",
"`B c #a4660c",
"`C c #8c6a44",
"`D c #9c9694",
"`E c #ac7a24",
"`F c #a47614",
"`G c #e4ded4",
"`H c #b4761c",
"`I c #ccc2bc",
"`J c #745234",
"`K c #846a4c",
"`L c #bc862c",
"`M c #8c521c",
"`N c #b46a24",
"`O c #b4a28c",
"`P c #8c661c",
"`Q c #cc8e14",
"`R c #a4661c",
"`S c #5c2604",
"`T c #ac8a5c",
"`U c #8c4e1c",
"`V c #ac6e14",
"`W c #c4baac",
"`X c #a47624",
"`Y c #c48214",
"`Z c #945e14",
"`0 c #b47a1c",
"`1 c #c47e1c",
"`2 c #dcd6cc",
"`3 c #c49214",
"`4 c #945a1c",
"`5 c #7c5a24",
"`6 c #8c6a34",
"`7 c #b4823c",
"`8 c #64524c",
".` c #9c660c",
".. c #cc8e34",
".# c #ac6624",
".a c #7c4e0c",
".b c #bc7a2c",
".c c #84623c",
".d c #c48a14",
".e c #64421c",
".f c #bc7224",
".g c #84521c",
".h c #9c721c",
".i c #ac7a34",
".j c #f4f6f4",
".k c #8c5a0c",
".l c #6c3604",
".m c #ac967c",
".n c #b47a24",
".o c #bc761c",
".p c #a46e1c",
".q c #b4722c",
".r c #946a1c",
".s c #bc8624",
".t c #c4922c",
".u c #e4e6e4",
".v c #745a3c",
".w c #847264",
".x c #8c5a1c",
".y c #acaaac",
".z c #5c2e04",
".A c #a48e6c",
".B c #945e24",
".C c #fcfefc",
".D c #4c3224",
".E c #ac6224",
".F c #ac7e14",
".G c #a4866c",
".H c #bc7e1c",
".I c #948e8c",
".J c #744a0c",
".K c #945224",
".L c #b4721c",
".M c #b4863c",
".N c #84560c",
".O c #c4b29c",
".P c #ac6e24",
".Q c #bc8614",
".R c #644e44",
".S c #8c5214",
".T c #9c621c",
".U c #b48214",
".V c #947244",
".W c #ac7614",
".X c #d4cac4",
".Y c #7c6e64",
".Z c #a46a1c",
".0 c #ccbebc",
".1 c #ac7624",
".2 c #dcd6dc",
".3 c #c48a24",
".4 c #ac7e44",
".5 c #fcf6f4",
".6 c #643e1c",
".7 c #b49e84",
".8 c #b47e24",
"#` c #9c6a1c",
"#. c #ac9674",
"## c #5c3a1c",
"#a c #dccec4",
"#b c #8c827c",
"#c c #a4865c",
"#d c #74664c",
"#e c #844a1c",
"#f c #6c5648",
"#g c #5c4e4c",
"#h c #a49e94",
"#i c #846654",
"#j c #c48a34",
"#k c #b48a4c",
"#l c #9c763c",
"#m c #b4aa94",
"#n c #645a54",
"#o c #9c661e",
"#p c #844e19",
"#q c #5c4a4c",
"#r c #ac6a14",
"#s c #b49a7c",
"#t c #a45e24",
"#u c #e4e2e4",
"#v c #c4bebc",
"#w c #64462c",
"#x c #643204",
"#y c #a4927c",
"#z c #c48e44",
"#A c #b48e5c",
"#B c #c48630",
"#C c #94661d",
"#D c #9c5a21",
"#E c #b4aaa4",
"#F c #ac8654",
"#G c #7c5e4c",
"#H c #bc8a24",
"#I c #b48624",
"#J c #b4762c",
"#K c #bc762c",
"#L c #ece6e4",
"#M c #745a4c",
"#N c #b48224",
"#O c #542a0c",
"#P c #7c4a0c",
"#Q c #a4720f",
"#R c #74460a",
"#S c #ccc6c4",
"#T c #846e54",
"#U c #8c561d",
"#V c #cc9213",
"#W c #ac721c",
"#X c #c48614",
"#Y c #94621c",
"#Z c #b47e1a",
"#0 c #dcdad4",
"#1 c #ac6a23",
"#2 c #846644",
"#3 c #ac7e34",
"#4 c #946e14",
"#5 c #94561e",
"#6 c #b48a44",
"#7 c #c4b6a0",
"#8 c #94764c",
"a` c #fcfafb",
"a. c #dcd2cc",
"a# c #8c621c",
"aa c #a47e44",
"ab c #a47224",
"ac c #b4a68c",
"ad c #5c2a04",
"ae c #c4beac",
"af c #64564c",
"ag c #cc9234",
"ah c #bc7e2c",
"ai c #c48e14",
"aj c #6c3a04",
"ak c #a4721c",
"al c #5c3204",
"am c #946224",
"an c #ac7224",
"ao c #8c5614",
"ap c #c48e24",
"aq c #9c6e1c",
"ar c #a46224",
"as c #ac7a1c",
"at c #bc7a24",
"au c #8c7a6c",
"av c #b46e24",
"aw c #845214",
"ax c #bc821c",
"ay c #8c520c",
"az c #9c5e24",
"aA c #a46614",
"aB c #ac7a2c",
"aC c #a4761c",
"aD c #e4dedc",
"aE c #b47624",
"aF c #846a54",
"aG c #a46624",
"aH c #8c4e24",
"aI c #ac6e1c",
"aJ c #a4762c",
"aK c #c4821c",
"aL c #945e1c",
"aM c #dcd6d4",
"aN c #845224",
"aO c #ac7a3c",
"aP c #8c5a14",
"aQ c #ac9684",
"aR c #b47a2c",
"aS c #bc7624",
"aT c #c49234",
"aU c #8c5a24",
"aV c #4c322c",
"aW c #ac7e1c",
"aX c #bc7e24",
"aY c #b47224",
"aZ c #845614",
"a0 c #bc861c",
"a1 c #9c6224",
"a2 c #b4821c",
"a3 c #ac761c",
"a4 c #d4cacc",
"a5 c #a46a24",
"a6 c #ac762c",
"a7 c #643e24",
"a8 c #b47e2c",
/* pixels */
".C.C.C.C.C.C.C.C.Ca``G#yauaF#8aO.4#F.A.m`p`Ga`.C.C.C.C.C.C.C.C.C",
".C.C.C.C.C.C.Ca`ae#qa7`oao#oaIaEaE.n`0a3as#6aQ`2a`.C.C.C.C.C.C.C",
".C.C.C.C.C.CaD#n###P.NaL.ZaE.n.nax.8.s.3.3`j.W#3`O`u.C.C.C.C.C.C",
".C.C.C.C.C`WaV`k.J`oaLaI.p#oama1#oaqa3aW#I.s#Ha2`f.G`G.C.C.C.C.C",
".C.C.C.C#maV#R#R.N#o`x.x.B.Z`Ha3akax#Z.Fas.Fa2#I`n`f`r.X.C.C.C.C",
".C.C.C#7aV`k#RaP`x#U.BaI`e`1`0#Y#Q`Q`3#Vai`ja2aWaW#I#Q`r`2.C.C.C",
".C.C`GaV#R#RaZaLaNa5.o`H`e`e`f.r.d`j.dai#V`3.d.UaWasa2`q#c#L.C.C",
".C.5#g#P#RaP`x#Uav.L.LaE`e`0a##Z`Q.d.d`3ai`3#Vai.UasaW#Z.`#s.C.C",
".C.O#w#PaZ`xaN#1.L.L`H.o`e#`#``Q.U`jaiai#V`3`3#V.d`0`F`E#W`XaM.C",
"a``vaoaw#oaZaGavaIaE.o`ea3a#.Q`Q.U#Zaiai`3`Q`3ai.d#Z#W.pas`B#.a`",
"#a#wao#Y.B#5aY`m`H.o`e`e#C`f`Q.d.d.U`jai`3#V`Qai#X`Y#W.Z`s`V.i`u",
".wamaL.P.g#1`man.L`0`e#Wa#.Q.dai`3`j.Qaiaiaiai.Q.Q`Y#W#o.ZanaA#7",
"#g`saGa5#Uav`m.LaE`e`H#Y`b`Q.daiai#V`j.Qai`j#X.Q`Y`e`0.T.TaY`B#s",
".R.P.q.T.TaY.L`H.o.H`f#C`Qaiaiaiai#V`j.U.Q.d#X.Q`t`e.o.T`4.P#r#A",
"`i#JaE.B`RaY.L`H`e`H`##Z`Q.daiai#V`3#V`n.U.d.Q`Y`e`H`H`x#5a5#1#k",
"`C.baSaU`R.LaE.o.H#`#``Q.daiai#V`3ai#V.d#Z.U`t`e`e.L.Laz`Ma1`m`7",
".V#K.b`4.P.L`H`e.W`#.Qai`3ai#Vai`3aiaiai`t`0.H`0.o.Lav`4aHar#1`7",
"`CaEaRamaI.o`e`e#Y#Q#V.daiai`3ai#Vaiai.d.Q.W.L`H`m#1`N#5#ea5#1.4",
"#Mah.b#oa5`e`e#Wa#.d`Qai`Q`3#V#V`3`Qai.d#X`0`V#W#1#1.#`U`Ua5`a`c",
"#f#B#J.P`R`e`ea##Zai.U`j#V#V#V#Vai.Q.d.d`Y.HaI.Z#1.#`a#e`M#1`l.G",
".Y#zaE.n#o`e#`#C`Q.Q.r.F`j`n.F.F`b#Q`F.W.W.Z.`aGaG.##5#e`4a1`dac",
"`Iaa.na8.paI`P`tai`b`P.U#Z#4`q`Paq`qa##C#Y.x.B.Tar.EaH#pazay#R#u",
".Caf#j.8.8.p`0.d.d`b`b.Q`j.F.U.h`Fa3ak.p#o.Z.Taraz#D#D`M.x.l`K.5",
".C#h#6ax#Nas`t.d.d`j`3`3`3#Vai`j.Q#X`t`H.LaI.#.##5.K#D#U`d.z#S.C",
".C.5afaT#N`n`E.U`j#Vai#V`3#Vai`Q.d`Y`Y`e`Havav#t#paHaw.a```Ka`.C",
".C.Ca4`K.ta2#NaW.U`j`Q#Vaiai.d.Q#X.H`e.o.Lav`4#e#e#p#P.za7.2.C.C",
".C.C.C`D#l`z`y#NaW.U`n`j.daiai`Q#X`Y`e#Wa1`M#e#e#p.aal#O#v.C.C.C",
".C.C.C.C#b`r.t`b#N#Z.F.F.F#Z`b.W#W.ZaL`4.g#p#p`M.aal``#m.C.C.C.C",
".C.C.C.C.C.I.caT.s`E.8aWas`Faq#`.`aL.xaU`4.B.x#R#O.6#v.C.C.C.C.C",
".C.C.C.C.C.C#v#f`z...s.n.naE.1ab`s`sa5a5a1.Najad#da4.C.C.C.C.C.C",
".C.C.C.C.C.C.C.u.I.v`Lag..#BaXah#K.banaA`w`k`i.0.5.C.C.C.C.C.C.C",
".C.C.C.C.C.C.C.C.C#u.y#d.v`6aJaB.1#C`5`J`h#v#L.C.C.C.C.C.C.C.C.C"
};
