/* XPM */
static const char *bitcoin16_xpm[] = {
/* columns rows colors chars-per-pixel */
"16 16 155 2",
"y. c #A75520",
"H  c #FBCD97",
"%  c #FCFBFB",
"M. c #893D20",
"n. c #DC8A3A",
"1  c #A8807F",
",. c #F8AE56",
"L  c #FBC78A",
"g. c #EB8D25",
"V  c #E68925",
"@. c #F8A849",
"u. c #EDE6E6",
"0. c #F8A84A",
"7. c #B08E90",
"7  c #F8A23D",
"X  c #AB8788",
"2. c #F89F36",
"9  c #F89F37",
"   c #FFFFFF",
"p. c #D5863C",
"f. c #F89C31",
"a. c #FCE0BE",
"6  c #D07F37",
"i. c #642124",
"m  c #FCDDB8",
".. c #E98A22",
"4  c #926466",
"d  c #F9B86B",
"#  c #A98484",
"B. c #944928",
"S  c #803926",
"Y  c #A9817E",
"+  c #6C2C2F",
"A. c #CE792C",
"~  c #F9AC52",
"*  c #621E21",
"e. c #FDF0E0",
"E  c #F9A94B",
"#. c #FDF0E1",
"S. c #A15224",
"c  c #FACE98",
"&  c #AC888A",
"p  c #E5933E",
"y  c #FBF9F8",
"z. c #F49628",
"2  c #FBF9F9",
"m. c #EA8E2A",
";  c #D17D30",
"=. c #EA8B22",
")  c #D17722",
"!  c #FABF79",
"k  c #ECE4E4",
"$. c #FABC73",
"t  c #8E5B59",
"8. c #863E27",
"}  c #FEFDFB",
"r. c #FEFDFC",
"I  c #F79726",
"i  c #6D2720",
"_  c #7F4645",
"l  c #631F22",
"&. c #FEF4E9",
"W  c #FBD5A8",
".  c #EAE1E1",
" . c #FBD2A1",
"F  c #FBCF9A",
"|  c #FBCF9B",
"'  c #C87C3A",
"j  c #A87F7C",
"(  c #FBC98D",
"N. c #662324",
"e  c #E18729",
"d. c #F8A747",
"a  c #F8A440",
"v  c #F8A441",
"8  c #F8A139",
"Z  c #E8DBD8",
"0  c #F89E35",
"C. c #DF8A33",
"w  c #F89B2E",
"P  c #F89B2F",
"5  c #6E2820",
"[  c #FCDCB6",
"v. c #976A6C",
"Q  c #F9BA6E",
"l. c #EC993F",
"O. c #C97D3B",
"-. c #6C2B2B",
"Z. c #E28B31",
">  c #BF6C2A",
"*. c #F9A542",
"9. c #F9A543",
"b  c #FACA91",
"1. c #FACA92",
";. c #865254",
"k. c #742D22",
"-  c #B8682D",
"4. c #FABE76",
"q. c #FABE77",
"K  c #FEFCF9",
"x. c #8B3E1F",
"]  c #FAB25E",
"G  c #FBDDB7",
"h  c #81361F",
"C  c #68221F",
"5. c #D47A22",
"u  c #AD8B8C",
"s. c #FBD19E",
"3  c #FCFCFC",
",  c #934623",
"z  c #CD7F3A",
"X. c #6B2929",
"D. c #6B2623",
":. c #B46834",
"$  c #E8DDDC",
"s  c #F8A038",
"q  c #F89D32",
"f  c #F89A2B",
"<. c #FCE1C1",
"T  c #855052",
"M  c #FCDEBA",
"V. c #C67530",
"@  c #80494B",
"<  c #641F20",
"{  c #FCD8AD",
"A  c #AE8C8D",
"`  c #713436",
"o. c #713437",
"^  c #F9B666",
"c. c #FDFDFD",
"O  c #6C2D30",
"b. c #762F22",
"h. c #6C2722",
"g  c #F19328",
">. c #F9AD53",
"R  c #B06533",
"N  c #F9AA4D",
"D  c #F9A745",
"j. c #B19091",
"t. c #F9A13A",
"%. c #FDE8D0",
"U  c #A15020",
"r  c #7E341F",
"6. c #814A4B",
"+. c #FAC381",
"n  c #FAC382",
"o  c #814A4D",
"3. c #FAC07C",
"x  c #FABA6E",
"/  c #FEFEFE",
"=  c #863C25",
"B  c #F79828",
"J  c #FEF8F2",
":  c #D47F2F",
"w. c #FEF5EB",
/* pixels */
"        . X o O + @ # $         ",
"    % & * = - ; : > , < 1 2     ",
"  3 4 5 6 7 8 9 0 q w e r t y   ",
"  u i p a 7 8 s d 0 w f g h j   ",
"k l z x c v b n m M N f B V C Z ",
"A S D F G v H   J K L P B I U Y ",
"T R E W Q 7 !   ~ ^ / ( B I ) _ ",
"` ' ] [ Q 7 { } |  ./ ! B I ..X.",
"o.O.+.[ @.7 #.M $.%.&.*.B I =.-.",
";.:.D >.,.<./ 1.2.3.  4.B I 5.6.",
"7.8.D 9.0.q.w.e.r./ e.t.B I y.X ",
"u.i.p.9.a v a.s.3.d.f.f B g.h.. ",
"  j.k.l.a 7 8 0.7 q w f z.x.&   ",
"  c.v.b.n.7 8 9 0 q w m.M.4 %   ",
"    c.j.N.B.V.C.Z.A.S.D.u 3     ",
"        u.7.;.o.` T A k         "
};
