/* XPM */
static const char *bitcoin32_xpm[] = {
/* columns rows colors chars-per-pixel */
"32 32 329 2",
"Z. c #C56D22",
"W. c #FBD09D",
".X c #FBD09E",
"fX c #FBCD95",
"$X c #915D59",
"m  c #D78638",
"8o c #7A311E",
"eX c #FBCA91",
"OX c #F8AE55",
"uX c #FBC788",
"d. c #F59525",
"7. c #BA9C9D",
"3o c #E68926",
"{. c #F8A848",
"O. c #D77D24",
"R  c #F2EAE5",
";o c #F8A849",
"co c #C8742D",
"V. c #F8A84A",
"c  c #F2EAE7",
"3X c #7D413D",
":. c #F8A542",
"9  c #B4642B",
"-X c #FCECD8",
"v. c #F8A543",
"&  c #B08E8E",
"6X c #FCE9D1",
"X. c #F8A23C",
"N  c #F8A23D",
"r. c #F8A23E",
"(. c #FCE6CB",
"f  c #F89F36",
"   c #FFFFFF",
"pX c #FCE3C4",
"jo c #823923",
" o c #DF8E3F",
"j  c #F89C31",
"&o c #FAF8F8",
"iX c #FCE0BD",
"x  c #8A534F",
"i. c #FCE0BF",
"uo c #F8992B",
"ro c #F5F1F1",
"wo c #E48928",
"UX c #FCDDB7",
"5. c #692524",
"po c #69221D",
"KX c #641E1E",
">  c #5F1A1D",
"2X c #D57A21",
"2o c #F9BE79",
"H. c #FCD7AB",
"RX c #E6DCDD",
"lX c #885658",
"aX c #F9B564",
"t  c #FDFCFA",
"=  c #FDFCFB",
"/. c #F9B25D",
"X  c #DCCECF",
"ho c #803620",
"^X c #F69624",
"l. c #F9AF56",
"p. c #F9AF57",
"t. c #FDF6EC",
"#. c #F8F5F5",
"VX c #F9AC52",
"MX c #7E4544",
"&. c #F4A243",
"M  c #F9A33D",
"+o c #FDEAD3",
"l  c #AB5A25",
"q  c #974A24",
"vX c #FDE7CD",
"a. c #FACB92",
",. c #FAC88B",
"I  c #F99A2B",
"/X c #742B1D",
"-  c #F6F2F2",
"NX c #9D7375",
"nX c #FAC587",
"Y  c #6A231D",
"no c #6A231E",
"2. c #FAC280",
"S  c #601B1D",
"go c #C77228",
"v  c #F1EBEC",
" . c #FABF7A",
"vo c #B36228",
"<o c #CBB6B7",
",o c #C76F22",
"#X c #BD6720",
"O  c #936567",
"5X c #9F552F",
"~  c #F7A340",
"7  c #A45629",
"T  c #773835",
"D  c #773836",
"to c #954A29",
":X c #FEFDFB",
"1. c #FEFDFC",
".  c #FEFDFD",
"~X c #FEFAF5",
"!X c #FEFAF6",
"C. c #F79726",
"3. c #F79727",
"k  c #E38A2D",
"I. c #FBDBB3",
"N. c #FEF7EF",
"qo c #BB6D33",
"5o c #9B7072",
"1o c #B16532",
"y  c #916264",
"J. c #FBD2A1",
"yo c #EB983D",
"&X c #934A2C",
"QX c #FBCF9B",
",  c #703132",
"=X c #FBCC94",
"A. c #702E2A",
"~. c #F8B059",
"XX c #F8AD52",
"Z  c #F0932B",
"H  c #7D4648",
"rX c #E18421",
"z  c #6B241E",
"R. c #611C1D",
"LX c #F3A346",
"ZX c #F8A747",
"E. c #EE9F45",
"b. c #F8A748",
"yX c #A0562F",
"E  c #946668",
"!  c #F8A441",
"Q  c #F8A442",
"4. c #B46022",
"a  c #F8A139",
"B  c #F8A13A",
"}  c #F8A13B",
"|. c #FCE5C9",
".. c #F89E34",
" X c #FCE2C3",
"8. c #D0813B",
"e  c #692727",
"V  c #F89B30",
"n. c #FCDCB6",
"]. c #9C7173",
"K. c #F9C07B",
"Y. c #D9C3BB",
"U  c #D07826",
"io c #C16C26",
"%  c #926364",
"!. c #F9BA6F",
"J  c #9E532C",
"`  c #C5ADAE",
"8X c #F9B462",
"6  c #8A4025",
"_  c #FDFBF9",
"xX c #F9B15B",
"[. c #7B3425",
"<. c #F9B15C",
"@o c #F9B15D",
"Oo c #FDF5EA",
"(  c #6C251D",
"jX c #E28521",
"4X c #7E4749",
"1  c #F3EDEA",
"mX c #D87D21",
"6. c #F3EAE4",
"bX c #FDEFDD",
"r  c #BB9995",
"SX c #FDEFDE",
"0. c #F9A849",
"@. c #BB968D",
"K  c #F4A140",
"@  c #74393B",
"cX c #FDECD7",
"[  c #F9A542",
"]  c #F9A543",
"IX c #FDECD9",
"oX c #FDE9D1",
"'X c #FACD97",
"kX c #74332F",
"D. c #E4D8D9",
"c. c #FACA8F",
"FX c #FDE6CC",
"|X c #BEA3A4",
"^. c #FAC78A",
"i  c #CC7B33",
")X c #7C4447",
"Q. c #FABE77",
"<  c #AF8B88",
"*o c #723638",
"'  c #9A502C",
"F  c #ECE0DB",
"DX c #F79F36",
"'. c #AF8882",
"`. c #9A4A1F",
"do c #E89339",
"`X c #FEFCF9",
"g. c #AF857D",
"=o c #863D27",
"BX c #813926",
"B. c #FEFCFA",
"M. c #FEF9F2",
"0o c #844F51",
"JX c #BCA0A1",
"_. c #F79624",
"P. c #FEF6EC",
"w  c #772E20",
"+. c #631E1D",
"5  c #68221E",
"ao c #68221F",
"0X c #FEF6EE",
"qX c #FEF3E7",
"o  c #B29293",
"u. c #FBD7AC",
"8  c #B1612B",
"ko c #A7592A",
"*. c #FAA644",
"p  c #F59F3A",
"dX c #FBD1A0",
"fo c #F5992F",
"T. c #BA9D9E",
"]X c #FBC88E",
"G. c #FBC586",
">X c #F8A94B",
"b  c #7D4547",
"-o c #F8A644",
";X c #F8A645",
"so c #AA5D2D",
"GX c #C36B20",
"+X c #F8A33E",
"w. c #FCEAD3",
".o c #F8A33F",
"{X c #733739",
"zX c #964D2C",
"L  c #F8A340",
":  c #73373A",
"). c #FCE7CC",
"s  c #F8A037",
"oo c #F8A038",
"#o c #F8A039",
"gX c #FCE7CE",
"tX c #73312C",
"|  c #FCE4C7",
"h  c #F89D32",
"PX c #F89D33",
"3  c #C2A8A9",
",X c #F89D34",
"P  c #F89A2B",
"hX c #F89A2C",
"x. c #FCE1C1",
"xo c #D07D2F",
"C  c #F89A2D",
"F. c #C17438",
")  c #8A514B",
"*  c #D9C8C7",
":o c #FCDBB5",
"7X c #FCD8AE",
"<X c #F9B96C",
"WX c #F9B665",
">. c #F9B667",
"bo c #944723",
"}X c #FDFDFD",
"4  c #6C2D30",
"*X c #F9B058",
"S. c #FDFAF7",
">o c #F9B059",
"%X c #885457",
"s. c #F9B05A",
"7o c #EC8F27",
"f. c #7B301E",
"zo c #CE7A2F",
"4o c #6C241D",
"z. c #FDF1E1",
"$  c #7E4648",
"e. c #F9AA4D",
"9. c #F9A745",
"k. c #F9A746",
"h. c #793F41",
"y. c #FDEEDD",
"W  c #AB5E30",
"@X c #F9A440",
"0  c #AB5B28",
"#  c #74383B",
"YX c #A1501F",
"$. c #6F3133",
"u  c #8D4326",
"j. c #833B27",
"g  c #F99E34",
"$o c #883C1F",
"eo c #79301F",
"G  c #F6F3F3",
"U. c #F49424",
"-. c #FAC688",
"q. c #FAC382",
"[X c #D17822",
"%o c #B49495",
"AX c #FAC07B",
"{  c #F7A43F",
";. c #F7A440",
";  c #B49496",
"CX c #FABD74",
"9X c #FABD75",
"HX c #936363",
"A  c #A45423",
"_X c #90472A",
"wX c #FEFEFD",
"d  c #F79E36",
"2  c #FEFEFE",
"EX c #CA7D3A",
"1X c #FEFBF7",
"9o c #F9F7F7",
"n  c #7C3423",
"%. c #773023",
"o. c #F79828",
"m. c #FEF8F0",
"^  c #F79829",
"Xo c #FEF8F1",
"(X c #DDCDCD",
"}. c #FAB15C",
"/  c #DE8426",
"6o c #C57636",
"L. c #FEF5EA",
"lo c #C06F2E",
"+  c #7F474A",
"TX c #B29190",
"sX c #FBD6A9",
"=. c #FBD6AA",
/* pixels */
"                    . X o O + @ # $ % & * =                     ",
"                - ; : > > > > > > > > > > , < 1                 ",
"            2 3 4 > > > 5 6 7 8 9 0 q w > > > e r t             ",
"          - y > > > u i p a s d f g h j k l z > > x c           ",
"        v b > > n m M N B a s d f g h j V C Z A S > D F         ",
"      G H > > J K L M N B a s d f g h j V C P I U Y > T R       ",
"    2 E > > W Q ! ~ M N B a s d f g h j V C P I ^ / ( > ) _     ",
"    ` > > ' ] [ ! { M N B a s } |  ...X.V C P I ^ o.O.+.> @.    ",
"  #.$.> %.&.*.=.-.;.M N :.a s >.  ,.<.1.2.C P I ^ o.3.4.> 5.6.  ",
"  7.> > 8.9.0.q.| w.e.r.t.y.u.i.  p.a.  s.C P I ^ o.3.d.f.> g.  ",
"2 h.> j.k.9.l.z.x.c.v.b.n.m.      M.N.B.V.C P I ^ o.3.C.Z.> A.S.",
"D.> > F.k.9.G.H.t.J.M N B K.    L.P.    1.I.B I ^ o.3.C.U.( > Y.",
"T.> R.E.k.9.W.Q.!.~.M N B W.    ^.../.(.    ).P ^ o.3.C._.`.> '.",
"].> [.{.k.}.|. X.XXXM N B oX    OXg h +X2     @X^ o.3.C._.#X> $X",
"%X> &X{.k.*X=X| -X{ M N ;X:X  M.>X,Xh <X    1Xh ^ o.3.C._.2X> 3X",
"4X> 5X{.k.=X6X7X8X{ M N 9X      2 0XqXwX  2 eXI ^ o.3.C._.rX> tX",
"4X> yX{.0.uXiXpXaX{ M N sX    dXfXgXwX    sXhXI ^ o.3.C._.jX> kX",
"lX> zX{.xXcXvX,.! { M N bX  2 >Xf g xXL.    nXI ^ o.3.C._.mX> MX",
"NX> BX{.k.9.VXCX! ZX,.AXwX  SXDXf g h W.    FXI ^ o.3.C._.GX> HX",
"JX> KXLXk.9.*.[ ! c.        oX8XN PX{.IX    UXI ^ o.3.C._.YX> TX",
"RX> > EXk.9.*.[ ! WXQX|.!X      wX~XwX    2 >.I ^ o.3.C.^X/X> (X",
"  )X> _Xk.9.*.[ ! { M N i.`X'XL.        1X]XP I ^ o.3.C.[X> {X}X",
"  |X> S  o9.*.[ ! { M .oXoFXooOo+o0.@os.#oC P I ^ o.3.C.$o> %o  ",
"  &o*o> =o-o*.[ ! { M ;o:o-.>o  W.g h j V C P I ^ o.3.,o> 4 -   ",
"    <o> > 1o*.[ ! ;.M N B a v.2oOXg h j V C P I ^ o.3o4o> 3     ",
"      5o> S 6o[ ! L M N B a s d f g h j V C P I ^ 7o8o> y 2     ",
"      9o0o> R.qo! L M N B a s d f g h j V C P I woeo> b -       ",
"        ro0o> > toyoM N B a s d f g h j V C uoiopo> H v         ",
"          9o5o> > aosodoB a s d f g h j fogoho> > E G           ",
"              <o*o> > S jokolozoxocovobono> > $.` 2             ",
"                &o|X)X> > > > > > > > > > h.7.#.                ",
"                      RXJXNXlX4X4X%X].T.D.2                     "
};
